<svg height="512.0005pt" viewBox="0 0 512.0005 512.0005" width="512.0005pt" xmlns="http://www.w3.org/2000/svg"><path d="m39.476562 472.523438c52.636719 52.636718 138.28125 52.636718 190.921876 0l121.0625-121.0625-81.316407-222.738282zm0 0" fill="#ffd4c4"/><path d="m160.542969 160.542969-121.066407 121.0625c-52.636718 52.636719-52.636718 138.28125 0 190.917969l287.234376-287.234376zm0 0" fill="#ffebe3"/><path d="m472.523438 39.476562-157.757813 58.765626-58.765625 157.757812 95.460938 95.460938 121.0625-121.0625c52.636718-52.636719 52.636718-138.285157 0-190.921876zm0 0" fill="#ff4547"/><path d="m472.523438 39.476562c-52.636719-52.636718-138.28125-52.636718-190.917969 0l-121.0625 121.066407 95.457031 95.457031zm0 0" fill="#ff7666"/><path d="m415.996094 173.996094-38.996094-38.996094-24.75-3.535156 3.539062 24.75 38.992188 38.992187zm0 0" fill="#a00d20"/><path d="m316.789062 117.222656 21.214844-21.214844 38.992188 38.992188-21.210938 21.214844zm0 0" fill="#e00016"/><path d="m195.207031 394.78125-38.992187-38.992188-24.75-3.539062 3.535156 24.75 38.996094 38.996094zm0 0" fill="#e00016"/><path d="m96.003906 338.003906 21.210938-21.210937 38.996094 38.992187-21.214844 21.214844zm0 0" fill="#ff4547"/><path d="m203.65625 308.34375-41.058594 12.777344 14.140625 14.140625c3.804688.441406 7.660157.929687 11.578125 1.421875 38.726563 4.898437 82.621094 10.445312 120.71875-27.652344l3.535156-24.746094-24.75 3.535156c-24.734374 24.734376-52.515624 24.207032-84.164062 20.523438zm0 0" fill="#ff4547"/><path d="m336.6875 188.316406c-.496094-3.917968-.984375-7.773437-1.425781-11.578125l-14.140625-14.140625-12.773438 41.058594c3.679688 31.648438 4.207032 59.433594-20.527344 84.164062l21.214844 21.214844c38.097656-38.097656 32.546875-81.992187 27.652344-120.71875zm0 0" fill="#601a2a"/><path d="m192.078125 306.921875c-38.722656-4.898437-82.617187-10.445313-120.714844 27.652344l-10.609375 10.605469 21.214844 21.214843 10.605469-10.609375c24.734375-24.730468 52.515625-24.203125 84.164062-20.523437l26.917969-26.917969c-3.804688-.441406-7.660156-.925781-11.578125-1.421875zm0 0" fill="#ff7666"/><path d="m355.789062 92.574219 10.605469-10.609375-21.214843-21.210938-10.605469 10.605469c-38.097657 38.101563-32.546875 81.996094-27.652344 120.71875.496094 3.917969.980469 7.773437 1.425781 11.578125l26.917969-26.917969c-3.683594-31.648437-4.210937-59.429687 20.523437-84.164062zm0 0" fill="#a00d20"/><path d="m224.179688 224.179688 10.609374-31.820313-31.820312 10.609375c-38.097656 38.097656-32.550781 81.992188-27.652344 120.71875.496094 3.914062.980469 7.769531 1.421875 11.574219l14.140625 14.144531 12.777344-41.0625c-3.679688-31.648438-4.207031-59.429688 20.523438-84.164062zm0 0" fill="#ffa785"/><path d="m308.34375 203.65625 41.0625-12.773438-14.144531-14.144531c-3.804688-.441406-7.660157-.925781-11.574219-1.421875-38.726562-4.898437-82.621094-10.445312-120.71875 27.652344l21.210938 21.214844c24.734374-24.734375 52.515624-24.207032 84.164062-20.527344zm0 0" fill="#ff4547"/><path d="m205.078125 319.921875c4.898437 38.726563 10.449219 82.621094-27.648437 120.71875l-10.609376 10.605469-21.210937-21.210938 10.605469-10.609375c24.730468-24.730469 24.207031-52.515625 20.523437-84.164062l26.917969-26.917969c.441406 3.804688.925781 7.660156 1.421875 11.578125zm0 0" fill="#ff7666"/><path d="m419.429688 156.214844 10.605468-10.609375 21.210938 21.214843-10.605469 10.605469c-38.097656 38.101563-81.992187 32.550781-120.71875 27.652344-3.917969-.496094-7.773437-.980469-11.574219-1.421875l26.917969-26.917969c31.644531 3.679688 59.429687 4.207031 84.164063-20.523437zm0 0" fill="#e00016"/></svg>